<?xml version="1.0" encoding="UTF-8"?> <svg xmlns="http://www.w3.org/2000/svg" id="Layer_1" width="481.46382" height="190.30947" viewBox="0 0 481.46382 190.30947"><defs><style>.cls-1{fill:#4298c5;}</style></defs><path d="M0,76.2567h8.22376v7.84995h.20767c3.90421-5.98091,9.88513-9.05445,17.19514-9.05445s12.46024,2.57512,14.62002,9.05445c3.61347-5.64865,9.88513-9.05445,16.69673-9.05445,10.59121,0,17.73508,4.44415,17.73508,15.4507v39.0421h-8.76371v-34.93022c0-6.60393-1.74443-11.83723-10.30047-11.83723s-13.91394,5.3579-13.91394,13.6232v33.18579h-8.7637v-34.93022c0-6.89467-2.15977-11.83723-10.00973-11.83723s-14.24621,9.59439-14.24621,13.6232v33.18579H0v-53.37138Z"></path><path d="M110.85464,75.0522c16.86287,0,25.83424,12.25257,25.83424,27.91095s-8.97138,27.82788-25.83424,27.82788-25.87578-12.25257-25.87578-27.82788,8.97138-27.91095,25.87578-27.91095ZM110.85464,123.06567c9.13751,0,16.57212-7.22694,16.57212-20.10252s-7.43461-20.1856-16.57212-20.1856-16.61366,7.22694-16.61366,20.1856,7.43461,20.10252,16.61366,20.10252Z"></path><path d="M194.62902,129.545h-8.76371v-7.1854h-.20767c-2.86585,5.85632-9.67745,8.43143-16.98746,8.43143-16.36445,0-24.50515-13.00018-24.50515-28.03555s8.05762-27.70328,24.29748-27.70328,13.29093,2.07671,17.19513,8.34837h.20767v-27.41254h8.76371v73.55698h0ZM169.87466,123.06567c11.71263,0,16.28139-10.09279,16.28139-20.10252s-4.73489-20.1856-16.77979-20.1856-15.94911,10.2174-15.94911,20.60094,5.15023,19.68718,16.48906,19.68718h-.04155Z"></path><path d="M253.56597,112.64061c-2.36745,11.75416-10.8404,18.15043-22.76071,18.15043-16.98748,0-25.04509-11.75416-25.5435-28.03555,0-15.94911,10.46661-27.70328,25.00356-27.70328s24.62974,17.61048,24.08981,30.48607h-39.87278c-.33227,9.26211,4.94257,17.52742,16.57214,17.52742s12.25257-3.48887,13.78934-10.42507h8.72217-.00003ZM245.093,97.81292c-.41534-8.34837-6.68699-15.03536-15.36763-15.03536s-14.62003,6.89467-15.24304,15.03536h30.61067Z"></path><path d="M263.94951,55.98803h8.7637v73.55698h-8.7637V55.98804h0Z"></path><path class="cls-1" d="M383.81705,53.24678h-20.26866v84.14818h20.26866c32.31356,0,39.24977-18.4827,39.24977-42.07409s-6.93621-42.07409-39.24977-42.07409h0Z"></path><path class="cls-1" d="M386.3091,0c-52.5407,0-95.15472,42.5725-95.15472,95.15474s42.61403,95.15474,95.15472,95.15474,95.15472-42.61404,95.15472-95.15474S438.8498,0,386.3091,0ZM391.79161,154.21629h-48.84415V36.42545h48.84415c36.30083,0,51.95923,26.37418,51.95923,58.89542s-15.65835,58.89542-51.95921,58.89542h-.00003Z"></path></svg> 