<svg xmlns="http://www.w3.org/2000/svg" xmlns:xlink="http://www.w3.org/1999/xlink" width="300" zoomAndPan="magnify" viewBox="0 0 224.87999 74.999997" height="100" preserveAspectRatio="xMidYMid meet" version="1.0"><defs><g/></defs><g fill="#e9435a" fill-opacity="1"><g transform="translate(195.227988, 53.196002)"><g><path d="M 27.902344 -23.507812 L 27.902344 -25.421875 L 17.699219 -25.421875 L 17.699219 -23.507812 C 20.6875 -22.660156 20.6875 -21.589844 15.726562 -15.613281 L 13.699219 -18.375 C 11.332031 -21.644531 10.597656 -22.773438 13.640625 -23.507812 L 13.640625 -25.421875 L 0.84375 -25.421875 L 0.84375 -23.507812 C 3.269531 -22.605469 4.453125 -21.589844 6.765625 -18.375 L 12.007812 -11.273438 L 8.625 -7.328125 C 5.976562 -4.226562 4.113281 -2.820312 0.84375 -1.917969 L 0.84375 0 L 11.046875 0 L 11.046875 -1.917969 C 8.0625 -2.761719 8.0625 -3.777344 13.019531 -9.808594 L 15.050781 -7.046875 C 17.417969 -3.777344 18.152344 -2.648438 15.105469 -1.917969 L 15.105469 0 L 27.902344 0 L 27.902344 -1.917969 C 25.480469 -2.820312 24.296875 -3.832031 21.984375 -7.046875 L 16.742188 -14.148438 L 20.125 -18.09375 C 22.773438 -21.195312 24.632812 -22.605469 27.902344 -23.507812 Z M 27.902344 -23.507812 "/></g></g></g><g fill="#082750" fill-opacity="1"><g transform="translate(2.562559, 53.196002)"><g><path d="M 15.332031 0.5625 C 21.984375 0.5625 29.761719 -1.859375 29.761719 -9.582031 C 29.761719 -17.191406 22.265625 -19.617188 16.628906 -21.363281 C 11.835938 -22.828125 8.566406 -24.40625 8.566406 -28.410156 C 8.566406 -30.609375 10.035156 -33.257812 14.261719 -33.257812 C 18.546875 -33.257812 22.886719 -30.609375 24.746094 -25.308594 C 25.085938 -24.351562 25.308594 -24.070312 25.988281 -24.070312 C 28.578125 -24.070312 28.410156 -29.085938 26.777344 -33.089844 C 24.238281 -34.722656 19.558594 -35.90625 15.164062 -35.90625 C 7.609375 -35.90625 1.972656 -32.1875 1.972656 -25.761719 C 1.972656 -19.503906 7.214844 -16.066406 13.191406 -14.207031 C 18.152344 -12.683594 22.546875 -11.332031 22.546875 -7.160156 C 22.546875 -4.058594 20.632812 -2.085938 16.574219 -2.085938 C 11.78125 -2.085938 7.273438 -4.734375 5.296875 -10.203125 C 4.960938 -11.160156 4.734375 -11.441406 4.058594 -11.441406 C 1.464844 -11.441406 1.632812 -6.425781 3.269531 -2.425781 C 5.804688 -0.789062 10.484375 0.5625 15.332031 0.5625 Z M 15.332031 0.5625 "/></g></g></g><g fill="#082750" fill-opacity="1"><g transform="translate(30.915602, 53.196002)"><g><path d="M 15.785156 0.339844 C 21.871094 0.339844 25.308594 -3.214844 26.382812 -5.296875 L 24.972656 -6.484375 C 23.054688 -4.003906 20.914062 -3.550781 19.054688 -3.550781 C 13.191406 -3.550781 8.90625 -7.949219 8.90625 -15.105469 C 8.90625 -20.179688 11.046875 -23.789062 15.164062 -23.789062 C 18.996094 -23.789062 19.503906 -20.800781 19.503906 -18.601562 C 19.503906 -17.023438 20.742188 -15.332031 23 -15.332031 C 25.367188 -15.332031 26.210938 -17.078125 26.210938 -18.882812 C 26.210938 -22.324219 22.097656 -25.929688 16.007812 -25.929688 C 9.074219 -25.929688 1.691406 -21.53125 1.691406 -12.683594 C 1.691406 -4.113281 8.625 0.339844 15.785156 0.339844 Z M 15.785156 0.339844 "/></g></g></g><g fill="#082750" fill-opacity="1"><g transform="translate(55.886546, 53.196002)"><g><path d="M 15.277344 0.339844 C 22.210938 0.339844 28.804688 -4.058594 28.804688 -12.738281 C 28.804688 -21.421875 22.210938 -25.929688 15.21875 -25.929688 C 8.285156 -25.929688 1.691406 -21.53125 1.691406 -12.851562 C 1.691406 -4.171875 8.285156 0.339844 15.277344 0.339844 Z M 16.347656 -1.804688 C 12.007812 -1.804688 8.90625 -7.890625 8.90625 -14.9375 C 8.90625 -20.855469 11.046875 -23.789062 14.148438 -23.789062 C 18.488281 -23.789062 21.589844 -17.699219 21.589844 -10.652344 C 21.589844 -4.734375 19.390625 -1.804688 16.347656 -1.804688 Z M 16.347656 -1.804688 "/></g></g></g><g fill="#082750" fill-opacity="1"><g transform="translate(82.999488, 53.196002)"><g><path d="M 12.402344 0.28125 C 15.445312 0.28125 17.191406 -0.734375 18.152344 -1.578125 L 17.191406 -3.324219 C 16.402344 -2.707031 15.332031 -2.425781 14.261719 -2.425781 C 11.949219 -2.425781 11.441406 -4.566406 11.441406 -7.101562 L 11.441406 -21.589844 C 11.441406 -22.773438 11.949219 -23.113281 12.964844 -23.113281 L 17.925781 -23.113281 L 17.925781 -25.421875 L 12.964844 -25.421875 C 11.949219 -25.421875 11.441406 -25.761719 11.441406 -26.945312 L 11.441406 -31.511719 L 8.792969 -31.511719 C 7.835938 -27.507812 5.75 -25.421875 0.84375 -24.746094 L 0.84375 -23.113281 L 3.15625 -23.113281 C 4.226562 -23.113281 4.679688 -22.773438 4.679688 -21.589844 L 4.679688 -8.34375 C 4.679688 -2.3125 7.328125 0.28125 12.402344 0.28125 Z M 12.402344 0.28125 "/></g></g></g><g fill="#082750" fill-opacity="1"><g transform="translate(98.895139, 53.196002)"><g><path d="M 12.402344 0.28125 C 15.445312 0.28125 17.191406 -0.734375 18.152344 -1.578125 L 17.191406 -3.324219 C 16.402344 -2.707031 15.332031 -2.425781 14.261719 -2.425781 C 11.949219 -2.425781 11.441406 -4.566406 11.441406 -7.101562 L 11.441406 -21.589844 C 11.441406 -22.773438 11.949219 -23.113281 12.964844 -23.113281 L 17.925781 -23.113281 L 17.925781 -25.421875 L 12.964844 -25.421875 C 11.949219 -25.421875 11.441406 -25.761719 11.441406 -26.945312 L 11.441406 -31.511719 L 8.792969 -31.511719 C 7.835938 -27.507812 5.75 -25.421875 0.84375 -24.746094 L 0.84375 -23.113281 L 3.15625 -23.113281 C 4.226562 -23.113281 4.679688 -22.773438 4.679688 -21.589844 L 4.679688 -8.34375 C 4.679688 -2.3125 7.328125 0.28125 12.402344 0.28125 Z M 12.402344 0.28125 "/></g></g></g><g fill="#082750" fill-opacity="1"><g transform="translate(114.79079, 53.196002)"><g/></g></g><g fill="#082750" fill-opacity="1"><g transform="translate(121.554779, 53.196002)"><g><path d="M 47.351562 -33.144531 L 47.351562 -35.003906 L 35.792969 -35.003906 L 24.859375 -12.0625 L 13.246094 -35.003906 L 1.691406 -35.003906 L 1.691406 -33.144531 C 4.226562 -32.808594 5.582031 -31.90625 5.582031 -29.761719 L 5.582031 -5.242188 C 5.582031 -3.101562 4.226562 -2.199219 1.691406 -1.859375 L 1.691406 0 L 12.851562 0 L 12.851562 -1.859375 C 10.316406 -2.199219 8.90625 -3.101562 8.90625 -5.242188 L 8.90625 -28.183594 L 21.476562 -3.269531 L 23.730469 -3.269531 L 35.792969 -28.410156 L 35.792969 -5.242188 C 35.792969 -3.101562 34.441406 -2.199219 31.90625 -1.859375 L 31.90625 0 L 47.351562 0 L 47.351562 -1.859375 C 44.8125 -2.199219 43.460938 -3.101562 43.460938 -5.242188 L 43.460938 -29.761719 C 43.460938 -31.90625 44.8125 -32.808594 47.351562 -33.144531 Z M 47.351562 -33.144531 "/></g></g></g><g fill="#082750" fill-opacity="1"><g transform="translate(167.212889, 53.196002)"><g><path d="M 9.132812 0.339844 C 13.132812 0.339844 16.066406 -1.746094 17.644531 -3.71875 C 18.152344 -4.339844 18.601562 -4.226562 18.660156 -3.550781 C 18.882812 -1.523438 20.347656 0.28125 23.507812 0.28125 C 25.140625 0.28125 27.171875 -0.167969 28.183594 -0.957031 L 28.183594 -2.875 C 26.269531 -2.480469 25.308594 -3.15625 25.308594 -5.015625 L 25.308594 -15.671875 C 25.308594 -23.507812 22.378906 -25.929688 15.953125 -25.929688 C 9.75 -25.929688 3.382812 -23.5625 3.382812 -19.503906 C 3.382812 -17.8125 4.453125 -16.347656 6.59375 -16.347656 C 8.457031 -16.347656 10.203125 -17.417969 10.203125 -19.785156 C 10.203125 -22.097656 11.105469 -23.84375 13.808594 -23.84375 C 17.136719 -23.84375 18.546875 -21.703125 18.546875 -17.644531 L 18.546875 -16.910156 C 18.546875 -15.390625 18.09375 -14.996094 16.515625 -14.769531 C 5.523438 -13.191406 1.691406 -10.429688 1.691406 -5.863281 C 1.691406 -1.464844 5.242188 0.339844 9.132812 0.339844 Z M 12.515625 -3.4375 C 9.808594 -3.4375 8.625 -5.1875 8.625 -7.273438 C 8.625 -9.300781 10.035156 -12.230469 16.289062 -12.796875 C 18.09375 -12.964844 18.546875 -12.402344 18.546875 -11.105469 L 18.546875 -9.414062 C 18.546875 -6.089844 16.007812 -3.4375 12.515625 -3.4375 Z M 12.515625 -3.4375 "/></g></g></g><g fill="#082750" fill-opacity="1"><g transform="translate(193.142095, 53.196002)"><g><path d="M 27.902344 -23.507812 L 27.902344 -25.421875 L 17.699219 -25.421875 L 17.699219 -23.507812 C 20.6875 -22.660156 20.6875 -21.589844 15.726562 -15.613281 L 13.699219 -18.375 C 11.332031 -21.644531 10.597656 -22.773438 13.640625 -23.507812 L 13.640625 -25.421875 L 0.84375 -25.421875 L 0.84375 -23.507812 C 3.269531 -22.605469 4.453125 -21.589844 6.765625 -18.375 L 12.007812 -11.273438 L 8.625 -7.328125 C 5.976562 -4.226562 4.113281 -2.820312 0.84375 -1.917969 L 0.84375 0 L 11.046875 0 L 11.046875 -1.917969 C 8.0625 -2.761719 8.0625 -3.777344 13.019531 -9.808594 L 15.050781 -7.046875 C 17.417969 -3.777344 18.152344 -2.648438 15.105469 -1.917969 L 15.105469 0 L 27.902344 0 L 27.902344 -1.917969 C 25.480469 -2.820312 24.296875 -3.832031 21.984375 -7.046875 L 16.742188 -14.148438 L 20.125 -18.09375 C 22.773438 -21.195312 24.632812 -22.605469 27.902344 -23.507812 Z M 27.902344 -23.507812 "/></g></g></g></svg>